<svg color="rgb(220, 38, 38)" width="204" height="142" viewBox="0 0 204 142" fill="none" class="w-16 h-10" xmlns="http://www.w3.org/2000/svg"> <mask id="mask0_0_27" style="mask-type:alpha" maskUnits="userSpaceOnUse" x="0" y="-1" width="204" height="144"> <path d="M0 -0.00830078H204V102.008L102 142.008L0 102.008V-0.00830078Z" fill="#1A1A1A"></path> </mask> <g mask="url(#mask0_0_27)"> <rect y="2.9917" width="204" height="204" fill="#D83838"></rect> <rect y="2.9917" width="68" height="204" fill="#007A3D"></rect> <rect x="68" y="2.9917" width="68" height="204" fill="white"></rect> <rect x="136" y="2.9917" width="68" height="204" fill="#1A1A1A"></rect> <path d="M0 -87.0083H204V76.9917L102 116.992L0 76.9917V-87.0083Z" fill="currentColor"></path> <path d="M74.1584 17.9917H19V33.706H37.3861V67.9917H55.7723V33.706H74.1584V17.9917Z" fill="white"></path> <path d="M78.3875 17.9917H129.303V33.706H96.7737V38.706H128.596V54.4203H96.7737V67.9917H78.3875V17.9917Z" fill="white"></path> <path fill-rule="evenodd" clip-rule="evenodd" d="M152.642 56.5631V67.9917H134.256V17.9917H164.169C171.947 17.9917 177.888 19.706 181.989 23.1346C185.996 26.4203 188 31.1346 188 37.2774C188 43.4203 185.996 48.1346 181.989 51.4203C177.888 54.8488 171.947 56.5631 164.169 56.5631H152.642ZM152.642 33.706V40.8488H164.805C168.011 40.8488 169.614 39.6584 169.614 37.2774C169.614 34.8965 168.011 33.706 164.805 33.706H152.642Z" fill="white"></path> </g> </svg>