<svg width="1920" height="1080" viewBox="0 0 1920 1080" fill="none" xmlns="http://www.w3.org/2000/svg">
<path d="M336.432 823H283.589C283.589 666.711 156.447 539.57 0.158691 539.57V486.727C185.578 486.727 336.432 637.581 336.432 823Z" fill="#F4F4F4"/>
<path d="M283.538 822.816H230.695C230.695 637.397 381.549 486.543 566.968 486.543V539.386C410.68 539.386 283.538 666.527 283.538 822.816Z" fill="#268024"/>
<path d="M0.158691 592.313V539.47C156.447 539.47 283.589 412.329 283.589 256.04H336.432C336.432 441.459 185.578 592.313 0.158691 592.313Z" fill="#E4312B"/>
<path d="M566.968 592.313C381.549 592.313 230.695 441.459 230.695 256.04H283.538C283.538 412.329 410.68 539.47 566.968 539.47V592.313Z" fill="#F4F4F4"/>
<path d="M1411.37 462.931H1384.32L1349.27 410.878V462.931H1327.14L1327.07 352.814H1363C1383.57 352.814 1400.44 368.662 1400.44 388.472C1400.44 402.612 1391.9 414.977 1380.08 419.144L1411.37 462.931ZM1349.21 374.741V402.407L1363.41 402.476C1370.93 402.544 1377.62 396.464 1377.62 388.609C1377.62 380.753 1370.86 374.741 1363.41 374.741H1349.21Z" fill="#F4F4F4"/>
<path d="M1255.28 465.048C1223.86 465.048 1198.1 439.364 1198.1 408.009C1198.1 376.381 1223.86 350.56 1255.35 350.56C1286.84 350.56 1312.66 376.381 1312.66 408.009C1312.66 439.364 1286.84 465.048 1255.28 465.048ZM1255.28 442.643C1274.54 442.643 1290.25 426.999 1290.25 407.872C1290.25 388.609 1274.54 372.897 1255.28 372.897C1236.08 372.897 1220.44 388.609 1220.44 407.872C1220.44 426.999 1236.08 442.643 1255.28 442.643Z" fill="#F4F4F4"/>
<path d="M1192.77 374.605H1148.51V396.806H1186.49V418.87H1148.51V463.068H1126.38V352.541H1192.77V374.605Z" fill="#F4F4F4"/>
<path d="M1044.13 352.814H1066.19V462.931H1044.13V418.802H1004.58V462.931H982.513V352.814H1004.58V396.874H1044.13V352.814Z" fill="#F4F4F4"/>
<path d="M931.895 465.048C900.13 465.048 874.309 438.885 874.309 407.941C874.309 376.859 900.472 350.56 931.485 350.56C945.83 350.765 958.536 356.434 970.081 367.569L957.307 384.988C949.792 377.611 940.775 373.102 931.28 373.102C913.588 373.102 896.715 388.814 896.715 408.077C896.715 427.682 914.202 442.847 931.212 442.847C941.322 442.847 950.066 437.451 957.375 430.278L970.081 448.176C960.381 457.808 948.563 465.048 931.895 465.048Z" fill="#F4F4F4"/>
<path d="M862.833 374.605H818.567V396.123H856.548V418.187H818.567V440.935H862.833V462.931H796.435V352.814H862.833V374.605Z" fill="#F4F4F4"/>
<path d="M784.002 352.814V374.741H756.951V462.931H734.75V374.741H707.631V352.814H784.002Z" fill="#F4F4F4"/>
<path d="M1919.75 603.155H1846.39V638.817H1909.33V675.384H1846.39V713.084H1919.75V749.538H1809.71V567.041H1919.75V603.155Z" fill="#F4F4F4"/>
<path d="M1741.21 566.588H1778.01V752.934H1776.31L1667.97 647.534V749.764H1631.29V563.644H1633.1L1741.21 668.818V566.588Z" fill="#F4F4F4"/>
<path d="M1562.91 749.538V567.041H1599.59V749.538H1562.91Z" fill="#F4F4F4"/>
<path d="M1542.3 567.041V603.382H1497.47V749.538H1460.68V603.382H1415.73V567.041H1542.3Z" fill="#F4F4F4"/>
<path d="M1338.41 753.161C1308.52 753.161 1286.44 740.708 1274.22 718.065L1303.54 697.461C1311.58 710.367 1323.24 716.254 1338.97 716.254C1356.18 716.254 1367.73 709.235 1367.73 699.498C1367.73 686.139 1345.88 675.611 1326.75 666.101C1306.26 655.912 1283.73 644.704 1283.73 615.609C1283.73 584.022 1310.44 563.192 1343.95 563.192C1368.86 563.192 1389.47 573.494 1397.73 595.57L1370.67 614.476C1365.24 603.608 1354.71 599.193 1344.52 599.193C1330.82 599.193 1320.63 607.118 1320.63 616.514C1320.63 627.383 1334.45 631.119 1355.39 640.968C1385.62 655.233 1404.64 670.629 1404.64 698.706C1404.64 731.99 1377.47 753.161 1338.41 753.161Z" fill="#F4F4F4"/>
<path d="M1256.78 603.155H1183.42V638.817H1246.37V675.384H1183.42V713.084H1256.78V749.538H1146.74V567.041H1256.78V603.155Z" fill="#F4F4F4"/>
<path d="M1052.77 713.084H1126.14V749.538H1016.09V567.041H1052.77V713.084Z" fill="#F4F4F4"/>
<path d="M958.016 749.538L946.469 724.065H873.447L861.786 749.538H822.162L909.335 562.512H910.467L997.753 749.538H958.016ZM887.712 692.819H932.204L910.014 644.025L887.712 692.819Z" fill="#F4F4F4"/>
<path d="M720.611 749.538V567.041H784.689C820.011 567.041 848.88 594.778 848.88 628.741C848.88 662.591 820.011 690.215 784.689 690.215H757.292V749.538H720.611ZM784.689 653.987C799.859 654.101 812.199 642.553 812.199 628.401C812.199 614.59 799.859 603.382 784.689 603.382H757.292V653.874L784.689 653.987Z" fill="#F4F4F4"/>
</svg>
