<svg xmlns="http://www.w3.org/2000/svg" width="300" height="150" viewBox="0 0 300 150"><path id="chartpath" fill="rgba(100,40,40,1)" stroke="rgba(168, 44, 44, 1)" stroke-width="1" mask="url(#mask)" d="M0,148.92810740580336L2.4381984422621064,148.6141186660892L4.876396884524213,147.6396708531832L7.314595326786319,145.8585967951494L9.752793769048425,144.2886530965786L12.190992211310531,143.48744045041144L14.629190653572637,140.7481593763534L17.067389095834745,138.00887830229536L19.50558753809685,136.73668254655695L21.943785980358957,134.79861411866608L24.381984422621063,133.72672152446947L26.820182864883172,131.17150281507145L29.258381307145275,129.50952793417062L31.69657974940738,127.60394110004331L34.13477819166949,126.26136855781724L36.572976633931596,124.82135123430056L39.0111750761937,122.46102208748376L41.44937351845581,118.6498484192291L43.887571960717914,114.56258120398441L46.32577040298002,111.95322650498052L48.763968845242125,110.33997401472499L51.20216728750424,108.29904720658293L53.640365729766344,106.66414032048507L56.07856417202844,105.03464703334777L58.51676261429055,103.84906886097879L60.954961056552655,102.33326115201386L63.39315949881476,100.94737981810307L65.83135794107687,99.88631442182763L68.26955638333898,98.63577306193156L70.70775482560109,97.10913815504547L73.24754486962411,95.86401039411L75.68574331188621,94.08834993503682L78.12394175414832,92.78367258553486L80.56214019641043,91.4356864443482L83.00033863867255,90.02815071459507L85.43853708093465,89.75205716760502L87.87673552319676,89.47596362061498L90.31493396545886,89.15114768297964L92.75313240772097,88.71805976613251L95.19133084998307,87.7436119532265L97.62952929224518,85.036812472932L100.06772773450727,85.036812472932L102.50592617676938,83.41273278475529L104.94412461903148,79.62321351234301L107.38232306129359,77.99913382416631L109.8205215035557,73.51667388479862L112.2587199458178,71.32957990472066L114.69691838807992,69.586401039411L117.13511683034203,68.796015591165L119.57331527260413,68.796015591165L122.01151371486624,68.796015591165L124.44971215712835,68.796015591165L126.88791059939045,68.796015591165L129.32610904165256,68.796015591165L131.76430748391468,68.796015591165L134.20250592617677,68.20051970550021L136.6407043684389,67.6754006063231L139.07890281070098,65.96470333477696L141.5171012529631,63.9291901255955L143.9552996952252,62.03984408834994L146.39349813748728,58.905370290168904L148.8316965797494,57.010610653962765L151.26989502201153,55.33239497618016L153.70809346427365,54.179298397574705L156.14629190653574,52.57145950627977L158.58449034879786,51.445430922477264L161.02268879105995,50.324815937635336L163.46088723332207,49.263750541359904L165.89908567558416,48.29471632741447L168.33728411784625,48.224339540926806L170.77548256010834,47.049588566478995L173.21368100237046,45.86942399307059L175.65187944463256,44.689259419662186L178.09007788689468,43.53074924209615L180.52827632915677,42.826981377219575L182.9664747714189,42.123213512343L185.40467321368098,41.41944564746644L187.8428716559431,40.33131225638804L190.28107009820522,39.43265482893028L192.7192685404673,38.07925508878303L195.15746698272943,36.77457773928107L197.59566542499152,35.71892594196622L200.03386386725364,34.58207016024254L202.47206230951574,33.56972715461238L204.91026075177786,32.6764833261152L207.34845919403995,31.86444348202685L209.78665763630207,31.01992204417497L212.22485607856416,29.89930705933304L214.66305452082628,29.20636639237766L217.1012529630884,28.52966652230403L219.5394514053505,27.652663490688607L221.9776498476126,26.99220441749675L224.4158482898747,26.380467734950198L226.85404673213682,25.03248159376354L229.29224517439891,24.350368124729314L231.73044361666103,23.554569077522736L234.16864205892313,22.948245993936762L236.60684050118525,21.654395842356L239.04503894344737,20.923559982676476L241.48323738570946,20.246860112602867L243.92143582797158,19.532265049805115L246.35963427023367,18.53074924209614L248.7978327124958,17.648332611520136L251.23603115475788,16.71719359029883L253.67422959702,15.948462537895198L256.11242803928207,15.055218709398016L258.55062648154416,14.091598094413166L260.9888249238063,13.06301429190126L263.4270233660684,12.007362494586404L265.8652218083305,10.870506712862705L268.3034202505926,9.787786920744917L270.74161869285473,8.797098310957118L273.1798171351168,7.855132091814637L275.6180155773789,6.961888263317456L278.05621401964106,5.797964486790824L280.49441246190315,5.180814205283673L282.93261090416524,4.368774361195321L285.37080934642734,3.7299696838458187L287.8090077886895,3.1236466002598604L290.2472062309516,2.5443915114768343L292.68540467321367,1.8568644434820314L295.12360311547576,1.2451277609354772L297.5618015577379,0.665872672152451L300,0L300,150L297.5618015577379,150L295.12360311547576,150L292.68540467321367,150L290.2472062309516,150L287.8090077886895,150L285.37080934642734,150L282.93261090416524,150L280.49441246190315,150L278.05621401964106,150L275.6180155773789,150L273.1798171351168,150L270.74161869285473,150L268.3034202505926,150L265.8652218083305,150L263.4270233660684,150L260.9888249238063,150L258.55062648154416,150L256.11242803928207,150L253.67422959702,150L251.23603115475788,150L248.7978327124958,150L246.35963427023367,150L243.92143582797158,150L241.48323738570946,150L239.04503894344737,150L236.60684050118525,150L234.16864205892313,150L231.73044361666103,150L229.29224517439891,150L226.85404673213682,150L224.4158482898747,150L221.9776498476126,150L219.5394514053505,150L217.1012529630884,150L214.66305452082628,150L212.22485607856416,150L209.78665763630207,150L207.34845919403995,150L204.91026075177786,150L202.47206230951574,150L200.03386386725364,150L197.59566542499152,150L195.15746698272943,150L192.7192685404673,150L190.28107009820522,150L187.8428716559431,150L185.40467321368098,150L182.9664747714189,150L180.52827632915677,150L178.09007788689468,150L175.65187944463256,150L173.21368100237046,150L170.77548256010834,150L168.33728411784625,150L165.89908567558416,150L163.46088723332207,150L161.02268879105995,150L158.58449034879786,150L156.14629190653574,150L153.70809346427365,150L151.26989502201153,150L148.8316965797494,150L146.39349813748728,150L143.9552996952252,150L141.5171012529631,150L139.07890281070098,150L136.6407043684389,150L134.20250592617677,150L131.76430748391468,150L129.32610904165256,150L126.88791059939045,150L124.44971215712835,150L122.01151371486624,150L119.57331527260413,150L117.13511683034203,150L114.69691838807992,150L112.2587199458178,150L109.8205215035557,150L107.38232306129359,150L104.94412461903148,150L102.50592617676938,150L100.06772773450727,150L97.62952929224518,150L95.19133084998307,150L92.75313240772097,150L90.31493396545886,150L87.87673552319676,150L85.43853708093465,150L83.00033863867255,150L80.56214019641043,150L78.12394175414832,150L75.68574331188621,150L73.24754486962411,150L70.70775482560109,150L68.26955638333898,150L65.83135794107687,150L63.39315949881476,150L60.954961056552655,150L58.51676261429055,150L56.07856417202844,150L53.640365729766344,150L51.20216728750424,150L48.763968845242125,150L46.32577040298002,150L43.887571960717914,150L41.44937351845581,150L39.0111750761937,150L36.572976633931596,150L34.13477819166949,150L31.69657974940738,150L29.258381307145275,150L26.820182864883172,150L24.381984422621063,150L21.943785980358957,150L19.50558753809685,150L17.067389095834745,150L14.629190653572637,150L12.190992211310531,150L9.752793769048425,150L7.314595326786319,150L4.876396884524213,150L2.4381984422621064,150L0,150Z"></path><style>
path {
  stroke: var(--ifm-color-primary-light);
  fill: var(--ifm-color-primary-lightest);
}
</style><defs><linearGradient id="maskgradient"><stop offset="0" stop-color="white"></stop><stop offset="0.9" stop-color="rgb(100,100,100)"></stop><stop offset="1" stop-color="black"></stop></linearGradient><mask id="mask"><rect id="svgmask" x="0" y="0" width="300" height="150" fill="url(#maskgradient)"></rect></mask></defs></svg>